<svg width="424.57mm" height="186.22mm" version="1.1" viewBox="0 0 424.57 186.22" xmlns="http://www.w3.org/2000/svg">
	<style>
		.dark {
			fill: #060;
			stroke-width: 0;
		}
		.medium {
			fill: #0c0;
			stroke-width: 0;
		}
		.light {
			fill: #3f3;
			stroke-width: 0;
		}
	</style>
    <defs>
		<path id="h" d="M0 0 v-24.624 h4.555 v10.068 h11.127 v-10.068 h4.555 v24.624 h-4.555 v-10.959 h-11.127 v10.959z"/>
		<path id="o" d="M0 0 q1.8321 2.3363 5.4122 2.3363 3.5801 0 5.3954 -2.3195 1.8321 -2.3363 1.8321 -6.5888 0 -4.3029 -1.8321 -6.6728 -1.8153 -2.37 -5.3786 -2.37 -3.5801 0 -5.429 2.3868 -1.8321 2.37 -1.8321 6.656 0 4.2357 1.8321 6.572z m5.3954 6.051 q-5.5635 0 -8.7907 -3.3616 -3.2104 -3.3784 -3.2104 -9.3117 0 -5.9669 3.2272 -9.3117 3.2272 -3.3448 8.7907 -3.3448 5.5635 0 8.7739 3.3616 3.2104 3.3448 3.2104 9.3117 0 5.8997 -3.2272 9.2781 -3.2272 3.3785 -8.7739 3.3785z"/>
		<path id="m" d="M0 0 v-24.624 h5.3786 l7.446 17.783 7.4964 -17.783 h5.3114 v24.624 h-4.202 v-12.169 l0.13444 -6.9754 -0.6219 1.8489 -6.3031 15.615 h-3.8995 l-6.1686 -15.699 -0.62191 -1.8489 0.15129 7.1267 v12.102z"/>
		<path id="e" d="M0 0 v-24.624 h14.926 v3.6138 h-10.186 v6.3535 h9.6815 v3.6138 h-9.6815 v7.4124 h10.556 v3.6306z"/>
		<path id="n" d="M0 0 v-24.624 h4.8407 q1.311 2.0506 5.3282 8.2696 4.0172 6.219 4.8912 7.5637 0.25212 0.38659 0.8572 1.311 0.62191 0.90764 0.87404 1.2942 -0.11764 -5.7652 -0.11764 -5.9837 v-12.455 h4.1516 v24.624 h-4.908 l-11.11 -17.312 -0.8068 -1.3278 q0.13444 4.4374 0.13444 6.2358 v12.404z"/>
		<path id="r" d="M0 0 v-24.691 h9.1268 q1.8657 0 3.2272 0.16809 1.3783 0.16807 2.6053 0.62189 1.2438 0.43701 2.0002 1.1934 0.77318 0.75638 1.2102 1.9834 0.45382 1.2102 0.45382 2.8742 0 4.908 -4.4542 6.4543 0.90765 1.0253 2.2523 3.7986 l3.6642 7.5973 h-4.9752 l-2.8742 -6.4375 q-1.6304 -3.4625 -2.017 -4.1012 -0.28574 -0.0168 -1.8993 -0.0168 l-3.8155 -0.0336 v10.589z m9.5302 -13.85 q2.6221 0 3.765 -0.92445 1.143 -0.94126 1.143 -3.0087 0 -1.8153 -1.1598 -2.6725 -1.1598 -0.85721 -3.5465 -0.85721 h-5.2273 v7.446 q0.25213 0 2.5044 0.0168 2.2523 0 2.5212 0z"/>
		<path id="g" d="M0 0 q-5.6307 0 -8.8075 -3.3953 -3.1599 -3.3952 -3.1599 -9.2949 0 -3.7482 1.4791 -6.5888 1.4791 -2.8574 4.3533 -4.4542 t6.7905 -1.5968 q4.4878 0 7.6982 1.9329 l-1.4791 3.3953 q-3.0591 -1.6472 -6.135 -1.6472 -3.7314 0 -5.8661 2.4204 -2.1346 2.4204 -2.1346 6.5888 0 4.1348 1.8993 6.5384 1.8993 2.4036 5.5635 2.4036 2.3531 0 4.2693 -0.73955 v-5.7148 h-5.1601 l0.0336 -3.5801 h9.4126 v11.883 q-2.2859 0.94126 -4.3365 1.3951 -2.0338 0.45383 -4.4206 0.45383z"/>
		<path id="y" d="M0 0 v-9.7656 l-8.5218 -14.858 h4.9416 l5.866 10.656 5.8997 -10.656 h4.8744 l-8.4881 14.774 v9.8496z"/>
		<path id="s" d="M0 0 q-4.4542 0 -7.9839 -2.0506 l1.1094 -3.6138 q1.58 0.87404 3.4289 1.4119 1.8657 0.53787 3.6306 0.53787 2.1682 0 3.2776 -0.92445 1.1093 -0.94126 1.1093 -2.6893 0 -2.3195 -3.0927 -3.2104 -0.21851 -0.0672 -1.227 -0.35297 -1.0085 -0.30255 -1.8993 -0.57148 -0.87404 -0.28572 -1.2606 -0.43701 -4.9584 -1.748 -4.9584 -6.5216 0 -3.3448 2.37 -5.1601 2.3868 -1.8153 6.3199 -1.8153 4.4542 0 7.6813 1.8321 l-1.3783 3.328 q-3.2944 -1.4791 -6.1182 -1.4791 -2.0338 0 -3.0759 0.72275 -1.0253 0.70593 -1.0925 2.37 0 2.0506 2.0338 2.6725 0.40338 0.15127 1.9834 0.65551 1.58 0.50425 2.0506 0.65552 3.3784 1.1094 4.824 2.7566 1.4623 1.6472 1.4623 4.5886 0 3.5129 -2.4876 5.4122 -2.4876 1.8825 -6.7064 1.8825z"/>
		<path id="v" d="M0 0 -8.9588 -24.624 h4.6895 l5.2105 15.211 q0.30255 0.78998 1.3951 4.6222 0.0672 -0.26893 0.62189 -2.2019 0.55468 -1.9498 0.72275 -2.3868 0.2017 -0.57148 2.5548 -7.5805 2.3532 -7.0258 2.5716 -7.6645 h4.6391 l-8.8411 24.624z"/>
		<path id="i" d="M0 0 v-24.624 h4.555 v24.624z"/>
		<path id="c" d="M0 0 q-5.3954 0 -8.5554 -3.3953 -3.1599 -3.3952 -3.1599 -9.379 0 -5.6812 3.2944 -9.11 3.3112 -3.4457 8.6562 -3.4457 4.3197 0 7.3116 2.0002 l-1.4287 3.4457 q-2.8742 -1.7648 -5.782 -1.7648 -3.3953 0 -5.3786 2.454 -1.9666 2.4372 -1.9666 6.5552 0 4.2693 1.8993 6.6056 1.9161 2.3363 5.4458 2.3363 3.0927 0 6.135 -1.5464 l0.6051 3.5633 q-2.8238 1.6808 -7.0762 1.6808z"/>
	</defs>
    <g id="green" class="dark">
        <path id="leaf" d="M37.77494 0 c-4.5682 -0.05239 -8.9528 0.5305 -13.154 1.7482 l0.0067 0.05168 a22.64 22.64 0 0 0 -16.784 21.836 22.64 22.64 0 0 0 22.64 22.64 c8.7459 0.17788 17.544 -2.2883 26.394 -7.398 9.7042 -5.6027 17.033 -12.81 21.986 -21.621 -7.065 -7.2294 -16.009 -12.294 -26.833 -15.194 -4.9356 -1.3225 -9.6877 -2.01 -14.256 -2.0624z"/>
        <path id="stem" d="M8.676 29.49 c-1.1131 1.6808 -2.1272 3.4494 -3.0293 5.318 -3.765 7.7542 -5.6472 16.674 -5.6472 26.759 0 5.7372 0.62705 11.183 1.8821 16.338 1.2998 5.1097 3.2272 9.8162 5.7821 14.119 2.5997 4.2581 5.7598 7.9335 9.48 11.026 3.7202 3.0927 8.135 5.513 13.245 7.2611 5.1545 1.7032 10.78 2.5549 16.875 2.5549 7.037 0 13.11 -0.53814 18.22 -1.6138 5.1545 -1.1206 10.466 -3.0927 15.934 -5.9164 v-12.638 h-8.0011 v7.9995 c-8.4713 3.3616 -16.225 5.0426 -23.262 5.0426 -6.8129 0 -12.819 -1.0534 -18.019 -3.16 -5.1993 -2.1514 -9.4576 -5.177 -12.774 -9.0764 -3.3168 -3.9443 -5.8042 -8.6061 -7.4626 -13.985 -1.6584 -5.3786 -2.4877 -11.407 -2.4877 -18.085 0 -6.275 0.80694 -12.08 2.4205 -17.413 0.55998 -1.801 1.214 -3.5247 1.9477 -5.1826 -2.4203 -2.6653 -4.17 -5.8693 -5.1041 -9.3462z"/>
        <path id="charge" class="medium" d="M49.013 9.528 c-8.0945 0 -15.332 1.4201 -21.711 4.2602 l8.6036 4.7925 0.0042 1e-3 c-1.5087 0.4622 -2.9721 1.0006 -4.3775 1.6361 -5.1097 2.3307 -9.2557 5.558 -12.438 9.6816 -3.1823 4.0788 -5.6027 8.7853 -7.2611 14.119 -1.6136 5.3338 -2.4205 11.138-2.4205 17.413 0 6.6785 0.8293 12.707 2.4877 18.085 1.6584 5.3786 4.1458 10.04 7.4626 13.985 3.3168 3.8995 7.5751 6.925 12.774 9.0764 5.1993 2.1066 11.206 3.16 18.019 3.16 7.037 0 14.791 -1.681 23.262 -5.0426 v-3.9998 l-2.42 1.0408 c-7.2163 2.8237 -14.321 4.2359 -21.313 4.2359 -12.281 0 -21.582 -3.6531 -27.902 -10.959 -6.275 -7.3508 -9.4123 -17.346 -9.4123 -29.986 0 -5.9613 0.78407 -11.429 2.3528 -16.405 1.6136 -5.02 3.9221 -9.3677 6.9252 -13.043 3.0479 -3.7202 6.9474 -6.6116 11.699 -8.6734 2.9057 -1.2763 6.0418 -2.1656 9.4082 -2.6686 -3.2526 -1.8972 -6.494 -3.8136 -9.7395 -5.7232 10.073 -3.879 21.152 -4.6857 31.779 -3.0758 -4.9507 -1.2742 -10.211 -1.911 -15.782 -1.911z"/>
        <g id="plug">
            <path id="case" d="M69.418 44.698 h10.615 a5 5 34.099 0 1 4.6424 3.143 l4.0276 10.069 a10 10 79.099 0 1 0.71523 3.7139 v10.452 a10 10 93.563 0 1 -0.0772 1.2403 l-1.3753 11.002 a5 5 138.56 0 1 -4.9614 4.3798 h-13.586z"/>
            <path id="base" d="M72.418 88.7 h10 v3 a1 1 135 0 1 -1 1 h-8 a1 1 45 0 1 -1 -1z"/>
            <rect id="top_pin_body" class="medium" x="48.421" y="50.7" width="21" height="8"/>
            <path id="top_pin_tip" class="light" d="M46.421 51.7 l2 -1 v8 l-2 -1z"/>
            <rect id="bottom_pin_base" x="61.421" y="75.7" width="8" height="3.5"/>
            <rect id="bottom_pin_body" class="medium" x="53.421" y="75.7" width="8" height="3.5"/>
            <path id="bottom_pin_tip" class="light" d="M51.421 76.7 l2 -1 v3.5 l-2 -1z"/>
        </g>
        <path id="r1" d="M112.41194 20.487 v33.616 q2.7565 0 11.362 0.13444 8.673 0.13444 13.379 0.13444 12.841 0 17.884 -4.2357 5.0425 -4.3029 5.0425 -13.581 0 -8.1352 -4.8408 -12.102 -4.8408 -3.9667 -16.203 -3.9667z m63.737 90.159 h-13.447 l-13.715 -31.196 q-5.5803 -12.573 -7.1267 -15.127 -4.908 0.33615 -11.631 0.33615 l-17.817 -0.53785 v46.525 h-11.9 v-100.58 h31.801 q5.5131 0 9.7487 0.26893 4.2357 0.26893 8.4041 1.0085 4.2357 0.67233 7.3284 1.9497 3.0927 1.2102 5.782 3.2272 2.6893 1.9497 4.3029 4.7063 1.6808 2.7565 2.6221 6.5888 0.94126 3.765 0.94126 8.5386 0 9.4126 -4.9752 16.203 -4.908 6.7905 -13.984 9.4126 0 0.13444 1.3446 2.4204 1.3447 2.2859 3.1599 5.6475 1.8825 3.2944 2.891 5.5131z"/>
        <path id="e1" d="M192.35194 110.646 v-99.437 h57.013 l-0.47063 10.287 h-44.911 v32.541 h42.693 v10.152 h-42.693 v36.171 h46.391 l-0.53787 10.287z"/>
        <path id="e2" d="M269.20194 110.646 v-99.437 h57.013 l-0.47063 10.287 h-44.911 v32.541 h42.693 v10.152 h-42.693 v36.171 h46.391 l-0.53787 10.287z"/>
        <path id="n1" d="M424.57194 110.646 h-13.178 l-51.635 -78.259 -3.3616 -4.639 q0.53785 14.119 0.53785 25.212 v57.686 h-10.892 v-99.437 h12.976 l51.769 78.259 3.4289 4.6391 q-0.47063 -21.447 -0.47063 -24.809 v-58.089 h10.824z"/>
    </g>
    <g id="home_energy_services" class="dark">
		<use href="#h" x="11.287" y="185.876"/>
		<use href="#o" x="42.449" y="180.176"/>
		<use href="#m" x="64.162" y="185.876"/>
		<use href="#e" x="95.112" y="185.876"/>
		<use href="#e" x="123.562" y="185.876"/>
		<use href="#n" x="142.932" y="185.876"/>
		<use href="#e" x="169.052" y="185.876"/>
		<use href="#r" x="188.292" y="185.876"/>
		<use href="#g" x="222.772" y="186.226"/>
		<use href="#y" x="242.032" y="185.876"/>
		<use href="#s" x="273.532" y="186.206"/>
		<use href="#e" x="286.602" y="185.876"/>
		<use href="#r" x="305.852" y="185.876"/>
		<use href="#v" x="335.362" y="185.876"/>
		<use href="#i" x="351.482" y="185.876"/>
		<use href="#c" x="372.222" y="186.226"/>
		<use href="#e" x="383.352" y="185.876"/>
		<use href="#s" x="409.622" y="186.206"/>
	</g>
</svg>
