<svg width="89.419mm" height="112.865mm" version="1.1" viewBox="0 0 89.419 112.865" xmlns="http://www.w3.org/2000/svg">
	<style>
		.dark {
			fill: #060;
			stroke-width: 0;
		}
		.medium {
			fill: #0c0;
			stroke-width: 0;
		}
		.light {
			fill: #3f3;
			stroke-width: 0;
		}
        @media (prefers-color-scheme: dark) {
            .dark {
                fill: #0c0;
            }
            .medium {
                fill: #9f9;
            }
            .light {
                fill: #fff;
            }
        }
        
	</style>
    <g id="green" class="dark">
        <path id="leaf" d="M37.77494 0 c-4.5682 -0.05239 -8.9528 0.5305 -13.154 1.7482 l0.0067 0.05168 a22.64 22.64 0 0 0 -16.784 21.836 22.64 22.64 0 0 0 22.64 22.64 c8.7459 0.17788 17.544 -2.2883 26.394 -7.398 9.7042 -5.6027 17.033 -12.81 21.986 -21.621 -7.065 -7.2294 -16.009 -12.294 -26.833 -15.194 -4.9356 -1.3225 -9.6877 -2.01 -14.256 -2.0624z"/>
        <path id="stem" d="M8.676 29.49 c-1.1131 1.6808 -2.1272 3.4494 -3.0293 5.318 -3.765 7.7542 -5.6472 16.674 -5.6472 26.759 0 5.7372 0.62705 11.183 1.8821 16.338 1.2998 5.1097 3.2272 9.8162 5.7821 14.119 2.5997 4.2581 5.7598 7.9335 9.48 11.026 3.7202 3.0927 8.135 5.513 13.245 7.2611 5.1545 1.7032 10.78 2.5549 16.875 2.5549 7.037 0 13.11 -0.53814 18.22 -1.6138 5.1545 -1.1206 10.466 -3.0927 15.934 -5.9164 v-12.638 h-8.0011 v7.9995 c-8.4713 3.3616 -16.225 5.0426 -23.262 5.0426 -6.8129 0 -12.819 -1.0534 -18.019 -3.16 -5.1993 -2.1514 -9.4576 -5.177 -12.774 -9.0764 -3.3168 -3.9443 -5.8042 -8.6061 -7.4626 -13.985 -1.6584 -5.3786 -2.4877 -11.407 -2.4877 -18.085 0 -6.275 0.80694 -12.08 2.4205 -17.413 0.55998 -1.801 1.214 -3.5247 1.9477 -5.1826 -2.4203 -2.6653 -4.17 -5.8693 -5.1041 -9.3462z"/>
        <path id="charge" class="medium" d="M49.013 9.528 c-8.0945 0 -15.332 1.4201 -21.711 4.2602 l8.6036 4.7925 0.0042 1e-3 c-1.5087 0.4622 -2.9721 1.0006 -4.3775 1.6361 -5.1097 2.3307 -9.2557 5.558 -12.438 9.6816 -3.1823 4.0788 -5.6027 8.7853 -7.2611 14.119 -1.6136 5.3338 -2.4205 11.138-2.4205 17.413 0 6.6785 0.8293 12.707 2.4877 18.085 1.6584 5.3786 4.1458 10.04 7.4626 13.985 3.3168 3.8995 7.5751 6.925 12.774 9.0764 5.1993 2.1066 11.206 3.16 18.019 3.16 7.037 0 14.791 -1.681 23.262 -5.0426 v-3.9998 l-2.42 1.0408 c-7.2163 2.8237 -14.321 4.2359 -21.313 4.2359 -12.281 0 -21.582 -3.6531 -27.902 -10.959 -6.275 -7.3508 -9.4123 -17.346 -9.4123 -29.986 0 -5.9613 0.78407 -11.429 2.3528 -16.405 1.6136 -5.02 3.9221 -9.3677 6.9252 -13.043 3.0479 -3.7202 6.9474 -6.6116 11.699 -8.6734 2.9057 -1.2763 6.0418 -2.1656 9.4082 -2.6686 -3.2526 -1.8972 -6.494 -3.8136 -9.7395 -5.7232 10.073 -3.879 21.152 -4.6857 31.779 -3.0758 -4.9507 -1.2742 -10.211 -1.911 -15.782 -1.911z"/>
        <g id="plug">
            <path id="case" d="M69.418 44.698 h10.615 a5 5 34.099 0 1 4.6424 3.143 l4.0276 10.069 a10 10 79.099 0 1 0.71523 3.7139 v10.452 a10 10 93.563 0 1 -0.0772 1.2403 l-1.3753 11.002 a5 5 138.56 0 1 -4.9614 4.3798 h-13.586z"/>
            <path id="base" d="M72.418 88.7 h10 v3 a1 1 135 0 1 -1 1 h-8 a1 1 45 0 1 -1 -1z"/>
            <rect id="top_pin_body" class="medium" x="48.421" y="50.7" width="21" height="8"/>
            <path id="top_pin_tip" class="light" d="M46.421 51.7 l2 -1 v8 l-2 -1z"/>
            <rect id="bottom_pin_base" x="61.421" y="75.7" width="8" height="3.5"/>
            <rect id="bottom_pin_body" class="medium" x="53.421" y="75.7" width="8" height="3.5"/>
            <path id="bottom_pin_tip" class="light" d="M51.421 76.7 l2 -1 v3.5 l-2 -1z"/>
        </g>
    </g>
</svg>
